<svg width="764" height="116" viewBox="0 0 764 116" fill="none" xmlns="http://www.w3.org/2000/svg">
<path d="M222.818 93H198.068V23.1818H223.023C230.045 23.1818 236.091 24.5795 241.159 27.375C246.227 30.1477 250.125 34.1364 252.852 39.3409C255.602 44.5455 256.977 50.7727 256.977 58.0227C256.977 65.2955 255.602 71.5455 252.852 76.7727C250.125 82 246.205 86.0114 241.091 88.8068C236 91.6023 229.909 93 222.818 93ZM212.83 80.3523H222.205C226.568 80.3523 230.239 79.5795 233.216 78.0341C236.216 76.4659 238.466 74.0455 239.966 70.7727C241.489 67.4773 242.25 63.2273 242.25 58.0227C242.25 52.8636 241.489 48.6477 239.966 45.375C238.466 42.1023 236.227 39.6932 233.25 38.1477C230.273 36.6023 226.602 35.8295 222.239 35.8295H212.83V80.3523ZM267.639 93V40.6364H282.162V93H267.639ZM274.935 33.8864C272.776 33.8864 270.923 33.1705 269.378 31.7386C267.855 30.2841 267.094 28.5455 267.094 26.5227C267.094 24.5227 267.855 22.8068 269.378 21.375C270.923 19.9205 272.776 19.1932 274.935 19.1932C277.094 19.1932 278.935 19.9205 280.457 21.375C282.003 22.8068 282.776 24.5227 282.776 26.5227C282.776 28.5455 282.003 30.2841 280.457 31.7386C278.935 33.1705 277.094 33.8864 274.935 33.8864ZM291.409 35.3523V23.1818H348.75V35.3523H327.375V93H312.784V35.3523H291.409ZM350.165 80.7273V69.1023L379.312 23.1818H389.335V39.2727H383.403L365.028 68.3523V68.8977H406.449V80.7273H350.165ZM383.676 93V77.1818L383.949 72.0341V23.1818H397.79V93H383.676ZM441.443 93H416.693V23.1818H441.648C448.67 23.1818 454.716 24.5795 459.784 27.375C464.852 30.1477 468.75 34.1364 471.477 39.3409C474.227 44.5455 475.602 50.7727 475.602 58.0227C475.602 65.2955 474.227 71.5455 471.477 76.7727C468.75 82 464.83 86.0114 459.716 88.8068C454.625 91.6023 448.534 93 441.443 93ZM431.455 80.3523H440.83C445.193 80.3523 448.864 79.5795 451.841 78.0341C454.841 76.4659 457.091 74.0455 458.591 70.7727C460.114 67.4773 460.875 63.2273 460.875 58.0227C460.875 52.8636 460.114 48.6477 458.591 45.375C457.091 42.1023 454.852 39.6932 451.875 38.1477C448.898 36.6023 445.227 35.8295 440.864 35.8295H431.455V80.3523ZM486.264 93V40.6364H500.787V93H486.264ZM493.56 33.8864C491.401 33.8864 489.548 33.1705 488.003 31.7386C486.48 30.2841 485.719 28.5455 485.719 26.5227C485.719 24.5227 486.48 22.8068 488.003 21.375C489.548 19.9205 491.401 19.1932 493.56 19.1932C495.719 19.1932 497.56 19.9205 499.082 21.375C500.628 22.8068 501.401 24.5227 501.401 26.5227C501.401 28.5455 500.628 30.2841 499.082 31.7386C497.56 33.1705 495.719 33.8864 493.56 33.8864ZM510.034 35.3523V23.1818H567.375V35.3523H546V93H531.409V35.3523H510.034Z" fill="#FF9800" fill-opacity="0.79"/>
<line x1="3.5" y1="112.5" x2="760.5" y2="112.5" stroke="#FF9800" stroke-opacity="0.5" stroke-width="7" stroke-linecap="round"/>
</svg>
